# xmcd
#
# Track frame offsets:
#	150
#	15680
#	31875
#	49598
#	67596
#	87959
#	105362
#	127135
#	150461
#	169832
#	188875
#	207188
#	224216
#	242660
#	259760
#
# Disc length: 3713 seconds
#
# Revision: 1
# Processed by: cddbd v1.5.2PL0 Copyright (c) Steve Scherf et al.
# Submitted via: audiograbber 1.83.01
#
DISCID=c80e7f0f
DTITLE=Carrie Underwood Style - Chartbuster Karaoke CDG90330
DYEAR=1900
DGENRE=Country
TTITLE0=Carrie Underwood Style - Before He Cheats
TTITLE1=Carrie Underwood Style - Flat On The Floor
TTITLE2=Carrie Underwood Style - Jesus,TakeThe Wheel
TTITLE3=Carrie Underwood Style - So Small
TTITLE4=Carrie Underwood Style - I Told You So
TTITLE5=Carrie Underwood Style - Crazt Dreams
TTITLE6=Carrie Underwood Style - Wasted
TTITLE7=Carrie Underwood Style - Just A Dream
TTITLE8=Carrie Underwood Style - Last Name
TTITLE9=Carrie Underwood Style - Dont Forget To Remember Me
TTITLE10=Carrie Underwood Style - Some Hearts
TTITLE11=Carrie Underwood Style - The Moor Boys I Meet
TTITLE12=Carrie Underwood Style - We're Young And Beautiful
TTITLE13=Carrie Underwood Style - All-American Girl
TTITLE14=Carrie Underwood Style - Inside Your Heaven
EXTD=
EXTT0=
EXTT1=
EXTT2=
EXTT3=
EXTT4=
EXTT5=
EXTT6=
EXTT7=
EXTT8=
EXTT9=
EXTT10=
EXTT11=
EXTT12=
EXTT13=
EXTT14=
PLAYORDER=
